# Blender v2.79 (sub 0) OBJ File: ''
# www.blender.org
mtllib pipe.mtl
o instance_8.001_ID159
v -0.003893 0.004035 -0.152463
v -0.001993 0.004821 0.152337
v -0.003893 0.004035 0.152337
v -0.001993 0.004821 -0.152463
v -0.005524 0.002783 -0.152463
v -0.005524 0.002783 0.152337
v 0.000045 0.005090 0.152337
v 0.000045 0.005090 -0.152463
v -0.006776 0.001152 0.152337
v -0.006776 0.001152 -0.152463
v 0.002083 0.004821 0.152337
v 0.002083 0.004821 -0.152463
v -0.007562 -0.000747 0.152337
v -0.007562 -0.000747 -0.152463
v 0.003983 0.004035 0.152337
v 0.003983 0.004035 -0.152463
v -0.007831 -0.002786 0.152337
v -0.007831 -0.002786 -0.152463
v 0.005614 0.002783 0.152337
v 0.005614 0.002783 -0.152463
v -0.007562 -0.004824 0.152337
v -0.007562 -0.004824 -0.152463
v 0.006865 0.001152 -0.152463
v 0.006865 0.001152 0.152337
v -0.006776 -0.006723 0.152337
v -0.006776 -0.006724 -0.152463
v 0.007652 -0.000747 -0.152463
v 0.007652 -0.000747 0.152337
v -0.005524 -0.008355 0.152337
v -0.005524 -0.008355 -0.152463
v 0.007920 -0.002786 -0.152463
v 0.007920 -0.002786 0.152337
v -0.003893 -0.009606 -0.152463
v -0.003893 -0.009606 0.152337
v 0.007652 -0.004824 -0.152463
v 0.007652 -0.004824 0.152337
v -0.001993 -0.010393 -0.152463
v -0.001993 -0.010393 0.152337
v 0.006865 -0.006724 -0.152463
v 0.006865 -0.006723 0.152337
v 0.000045 -0.010661 -0.152463
v 0.000045 -0.010661 0.152337
v 0.005614 -0.008355 -0.152463
v 0.005614 -0.008355 0.152337
v 0.002083 -0.010393 -0.152463
v 0.002083 -0.010393 0.152337
v 0.003983 -0.009606 0.152337
v 0.003983 -0.009606 -0.152463
vn 0.5000 -0.8660 0.0000
vn 0.2588 -0.9659 0.0000
vn 0.7071 -0.7071 0.0000
vn 0.0000 -1.0000 0.0000
vn 0.8660 -0.5000 0.0000
vn -0.2588 -0.9659 0.0000
vn 0.9659 -0.2588 0.0000
vn -0.5000 -0.8660 0.0000
vn 1.0000 0.0000 0.0000
vn -0.7071 -0.7071 0.0000
vn 0.9659 0.2588 0.0000
vn -0.8660 -0.5000 0.0000
vn 0.8660 0.5000 0.0000
vn -0.9659 -0.2588 0.0000
vn 0.7071 0.7071 0.0000
vn -1.0000 0.0000 0.0000
vn 0.5000 0.8660 0.0000
vn -0.9659 0.2588 0.0000
vn 0.2588 0.9659 0.0000
vn -0.8660 0.5000 0.0000
vn 0.0000 1.0000 0.0000
vn -0.7071 0.7071 0.0000
vn -0.2588 0.9659 0.0000
vn -0.5000 0.8660 0.0000
usemtl material
s 1
f 1//1 2//2 3//1
f 2//2 1//1 4//2
f 5//3 3//1 6//3
f 3//1 5//3 1//1
f 4//2 7//4 2//2
f 7//4 4//2 8//4
f 9//5 5//3 6//3
f 5//3 9//5 10//5
f 8//4 11//6 7//4
f 11//6 8//4 12//6
f 13//7 10//5 9//5
f 10//5 13//7 14//7
f 12//6 15//8 11//6
f 15//8 12//6 16//8
f 17//9 14//7 13//7
f 14//7 17//9 18//9
f 16//8 19//10 15//8
f 19//10 16//8 20//10
f 21//11 18//9 17//9
f 18//9 21//11 22//11
f 23//12 19//10 20//10
f 19//10 23//12 24//12
f 25//13 22//11 21//11
f 22//11 25//13 26//13
f 27//14 24//12 23//12
f 24//12 27//14 28//14
f 29//15 26//13 25//13
f 26//13 29//15 30//15
f 31//16 28//14 27//14
f 28//14 31//16 32//16
f 33//17 29//15 34//17
f 29//15 33//17 30//15
f 35//18 32//16 31//16
f 32//16 35//18 36//18
f 37//19 34//17 38//19
f 34//17 37//19 33//17
f 39//20 36//18 35//18
f 36//18 39//20 40//20
f 41//21 38//19 42//21
f 38//19 41//21 37//19
f 43//22 40//20 39//20
f 40//20 43//22 44//22
f 45//23 42//21 46//23
f 42//21 45//23 41//21
f 43//22 47//24 44//22
f 47//24 43//22 48//24
f 48//24 46//23 47//24
f 46//23 48//24 45//23
o instance_8_ID153
v -0.010901 -0.005547 0.151594
v -0.010901 -0.000025 0.151594
v -0.011265 -0.002786 0.151594
v -0.009836 -0.008120 0.151594
v -0.009836 0.002548 0.151594
v -0.008140 -0.010329 0.151594
v -0.008472 -0.002786 0.151594
v -0.008204 -0.004824 0.151594
v -0.007417 -0.006723 0.151594
v -0.005931 -0.012024 0.151594
v -0.006166 -0.008355 0.151594
v -0.004535 -0.009606 0.151594
v -0.003358 -0.013090 0.151594
v -0.002635 -0.010393 0.151594
v -0.000597 -0.013454 0.151594
v -0.000597 -0.010661 0.151594
v 0.002164 -0.013090 0.151594
v 0.001441 -0.010393 0.151594
v 0.003341 -0.009606 0.151594
v 0.004737 -0.012024 0.151594
v 0.004972 -0.008355 0.151594
v 0.006947 -0.010329 0.151594
v 0.006224 -0.006723 0.151594
v 0.007010 -0.004824 0.151594
v 0.008642 -0.008120 0.151594
v 0.007279 -0.002786 0.151594
v -0.008140 0.004758 0.151594
v -0.008204 -0.000747 0.151594
v -0.007417 0.001152 0.151594
v -0.005931 0.006453 0.151594
v -0.006166 0.002783 0.151594
v -0.004535 0.004035 0.151594
v -0.003358 0.007519 0.151594
v -0.002635 0.004821 0.151594
v -0.000597 0.007882 0.151594
v -0.000597 0.005090 0.151594
v 0.001441 0.004821 0.151594
v 0.002164 0.007519 0.151594
v 0.003341 0.004035 0.151594
v 0.004737 0.006453 0.151594
v 0.004972 0.002783 0.151594
v 0.006947 0.004758 0.151594
v 0.006224 0.001152 0.151594
v 0.007010 -0.000747 0.151594
v 0.008642 0.002548 0.151594
v 0.009708 -0.005547 0.151594
v 0.009708 -0.000025 0.151594
v 0.010071 -0.002786 0.151594
v -0.003358 -0.013090 -0.153206
v -0.000597 -0.013454 0.151594
v -0.003358 -0.013090 0.151594
v -0.000597 -0.013454 -0.153206
v 0.002164 -0.013090 0.151594
v 0.002164 -0.013090 -0.153206
v 0.004737 -0.012024 0.151594
v 0.004737 -0.012025 -0.153206
v 0.006947 -0.010329 0.151594
v 0.006947 -0.010329 -0.153206
v 0.008642 -0.008120 -0.153206
v 0.008642 -0.008120 0.151594
v 0.009708 -0.005547 -0.153206
v 0.009708 -0.005547 0.151594
v 0.010071 -0.002786 -0.153206
v 0.010071 -0.002786 0.151594
v 0.009708 -0.000025 -0.153206
v 0.009708 -0.000025 0.151594
v 0.008642 0.002548 -0.153206
v 0.008642 0.002548 0.151594
v 0.006947 0.004758 -0.153206
v 0.006947 0.004758 0.151594
v 0.004737 0.006453 0.151594
v 0.004737 0.006453 -0.153206
v 0.002164 0.007519 0.151594
v 0.002164 0.007519 -0.153206
v -0.000597 0.007882 0.151594
v -0.000597 0.007882 -0.153206
v -0.003358 0.007519 0.151594
v -0.003358 0.007519 -0.153206
v -0.005931 0.006453 0.151594
v -0.005931 0.006453 -0.153206
v -0.008140 0.004758 0.151594
v -0.008140 0.004758 -0.153206
v -0.009836 0.002548 -0.153206
v -0.009836 0.002548 0.151594
v -0.010901 -0.000025 -0.153206
v -0.010901 -0.000025 0.151594
v -0.011265 -0.002786 -0.153206
v -0.011265 -0.002786 0.151594
v -0.010901 -0.005547 -0.153206
v -0.010901 -0.005547 0.151594
v -0.009836 -0.008120 -0.153206
v -0.009836 -0.008120 0.151594
v -0.008140 -0.010329 -0.153206
v -0.008140 -0.010329 0.151594
v -0.005931 -0.012024 0.151594
v -0.005931 -0.012025 -0.153206
v -0.010901 -0.000025 -0.153206
v -0.010901 -0.005547 -0.153206
v -0.011265 -0.002786 -0.153206
v -0.009836 0.002548 -0.153206
v -0.009836 -0.008120 -0.153206
v -0.008140 0.004758 -0.153206
v -0.008472 -0.002786 -0.153206
v -0.008204 -0.000747 -0.153206
v -0.007417 0.001152 -0.153206
v -0.005931 0.006453 -0.153206
v -0.006166 0.002783 -0.153206
v -0.004535 0.004035 -0.153206
v -0.003358 0.007519 -0.153206
v -0.002635 0.004821 -0.153206
v -0.000597 0.007882 -0.153206
v -0.000597 0.005090 -0.153206
v 0.002164 0.007519 -0.153206
v 0.001441 0.004821 -0.153206
v 0.003341 0.004035 -0.153206
v 0.004737 0.006453 -0.153206
v 0.004972 0.002783 -0.153206
v 0.006947 0.004758 -0.153206
v 0.006224 0.001152 -0.153206
v 0.007010 -0.000747 -0.153206
v 0.008642 0.002548 -0.153206
v 0.007279 -0.002786 -0.153206
v -0.008140 -0.010329 -0.153206
v -0.008204 -0.004824 -0.153206
v -0.007417 -0.006724 -0.153206
v -0.005931 -0.012025 -0.153206
v -0.006166 -0.008355 -0.153206
v -0.004535 -0.009606 -0.153206
v -0.003358 -0.013090 -0.153206
v -0.002635 -0.010393 -0.153206
v -0.000597 -0.013454 -0.153206
v -0.000597 -0.010661 -0.153206
v 0.001441 -0.010393 -0.153206
v 0.002164 -0.013090 -0.153206
v 0.003341 -0.009606 -0.153206
v 0.004737 -0.012025 -0.153206
v 0.004972 -0.008355 -0.153206
v 0.006947 -0.010329 -0.153206
v 0.006224 -0.006724 -0.153206
v 0.007010 -0.004824 -0.153206
v 0.008642 -0.008120 -0.153206
v 0.009708 -0.000025 -0.153206
v 0.009708 -0.005547 -0.153206
v 0.010071 -0.002786 -0.153206
vn 0.0000 0.0000 1.0000
vn -0.0001 0.0000 1.0000
vn 0.0000 0.0000 -1.0000
vn 0.0001 0.0000 -1.0000
vn -0.2588 -0.9659 0.0000
vn 0.0000 -1.0000 0.0000
vn 0.2588 -0.9659 0.0000
vn 0.5000 -0.8660 0.0000
vn 0.7071 -0.7071 0.0000
vn 0.8660 -0.5000 0.0000
vn 0.9659 -0.2588 0.0000
vn 1.0000 0.0000 0.0000
vn 0.9659 0.2588 0.0000
vn 0.8660 0.5000 0.0000
vn 0.7071 0.7071 0.0000
vn 0.5000 0.8660 0.0000
vn 0.2588 0.9659 0.0000
vn 0.0000 1.0000 0.0000
vn -0.2588 0.9659 0.0000
vn -0.5000 0.8660 0.0000
vn -0.7071 0.7071 0.0000
vn -0.8660 0.5000 0.0000
vn -0.9659 0.2588 0.0000
vn -1.0000 0.0000 0.0000
vn -0.9659 -0.2588 0.0000
vn -0.8660 -0.5000 0.0000
vn -0.7071 -0.7071 0.0000
vn -0.5000 -0.8660 0.0000
usemtl material
s off
f 49//25 50//25 51//25
f 50//25 49//25 52//25
f 50//25 52//25 53//25
f 53//25 52//25 54//25
f 53//25 54//25 55//25
f 55//25 54//25 56//25
f 56//25 54//25 57//25
f 57//25 54//25 58//25
f 57//25 58//25 59//25
f 59//25 58//25 60//25
f 60//25 58//25 61//25
f 60//25 61//25 62//25
f 62//25 61//25 63//25
f 62//25 63//25 64//25
f 64//25 63//25 65//25
f 64//25 65//25 66//25
f 66//25 65//25 67//25
f 67//25 65//25 68//25
f 67//25 68//25 69//25
f 69//25 68//25 70//25
f 69//25 70//25 71//25
f 71//25 70//25 72//25
f 72//25 70//25 73//25
f 72//25 73//25 74//25
f 55//25 75//25 53//25
f 75//26 55//26 76//26
f 75//25 76//25 77//25
f 75//25 77//25 78//25
f 78//25 77//25 79//25
f 78//25 79//25 80//25
f 78//25 80//25 81//25
f 81//25 80//25 82//25
f 81//25 82//25 83//25
f 83//25 82//25 84//25
f 83//25 84//25 85//25
f 83//25 85//25 86//25
f 86//25 85//25 87//25
f 86//25 87//25 88//25
f 88//25 87//25 89//25
f 88//25 89//25 90//25
f 90//25 89//25 91//25
f 90//25 91//25 92//25
f 90//25 92//25 93//25
f 93//25 92//25 74//25
f 93//25 74//25 73//25
f 93//25 73//25 94//25
f 93//25 94//25 95//25
f 95//25 94//25 96//25
f 145//27 146//27 147//27
f 146//27 145//27 148//27
f 146//27 148//27 149//27
f 149//27 148//27 150//27
f 149//27 150//27 151//27
f 151//28 150//28 152//28
f 152//27 150//27 153//27
f 153//27 150//27 154//27
f 153//27 154//27 155//27
f 155//27 154//27 156//27
f 156//27 154//27 157//27
f 156//27 157//27 158//27
f 158//27 157//27 159//27
f 158//27 159//27 160//27
f 160//27 159//27 161//27
f 160//27 161//27 162//27
f 162//27 161//27 163//27
f 163//27 161//27 164//27
f 163//27 164//27 165//27
f 165//27 164//27 166//27
f 165//27 166//27 167//27
f 167//27 166//27 168//27
f 168//27 166//27 169//27
f 168//27 169//27 170//27
f 151//27 171//27 149//27
f 171//28 151//28 172//28
f 171//27 172//27 173//27
f 171//27 173//27 174//27
f 174//27 173//27 175//27
f 174//27 175//27 176//27
f 174//27 176//27 177//27
f 177//27 176//27 178//27
f 177//27 178//27 179//27
f 179//27 178//27 180//27
f 179//27 180//27 181//27
f 179//27 181//27 182//27
f 182//27 181//27 183//27
f 182//27 183//27 184//27
f 184//27 183//27 185//27
f 184//27 185//27 186//27
f 186//27 185//27 187//27
f 186//27 187//27 188//27
f 186//27 188//27 189//27
f 189//27 188//27 170//27
f 189//27 170//27 169//27
f 189//27 169//27 190//27
f 189//27 190//27 191//27
f 191//27 190//27 192//27
s 1
f 97//29 98//30 99//29
f 98//30 97//29 100//30
f 100//30 101//31 98//30
f 101//31 100//30 102//31
f 102//31 103//32 101//31
f 103//32 102//31 104//32
f 104//32 105//33 103//32
f 105//33 104//32 106//33
f 105//33 107//34 108//34
f 107//34 105//33 106//33
f 108//34 109//35 110//35
f 109//35 108//34 107//34
f 110//35 111//36 112//36
f 111//36 110//35 109//35
f 112//36 113//37 114//37
f 113//37 112//36 111//36
f 114//37 115//38 116//38
f 115//38 114//37 113//37
f 116//38 117//39 118//39
f 117//39 116//38 115//38
f 117//39 119//40 118//39
f 119//40 117//39 120//40
f 120//40 121//41 119//40
f 121//41 120//40 122//41
f 122//41 123//42 121//41
f 123//42 122//41 124//42
f 124//42 125//43 123//42
f 125//43 124//42 126//43
f 126//43 127//44 125//43
f 127//44 126//43 128//44
f 128//44 129//45 127//44
f 129//45 128//44 130//45
f 131//46 129//45 130//45
f 129//45 131//46 132//46
f 133//47 132//46 131//46
f 132//46 133//47 134//47
f 135//48 134//47 133//47
f 134//47 135//48 136//48
f 137//49 136//48 135//48
f 136//48 137//49 138//49
f 139//50 138//49 137//49
f 138//49 139//50 140//50
f 141//51 140//50 139//50
f 140//50 141//51 142//51
f 141//51 143//52 142//51
f 143//52 141//51 144//52
f 144//52 99//29 143//52
f 99//29 144//52 97//29
